<?xml version="1.0" encoding="utf-8"?>
<!DOCTYPE svg PUBLIC "-//W3C//DTD SVG 1.1//EN" "http://www.w3.org/Graphics/SVG/1.1/DTD/svg11.dtd">
<!-- Generated by geo2svg 2.3.2. https://d3js.org/d3-geo-projection/ -->
<svg version="1.1" xmlns="http://www.w3.org/2000/svg" xmlns:xlink="http://www.w3.org/1999/xlink" width="960" height="960" viewBox="0 0 960 960" fill="none">
  <path id="001963400" fill="#a5db36" d="M755.3,734.8L756.6,733.7L757.6,733.6L756.7,735.1L755.7,736L755.4,736.2Z"></path>
  <path id="001963900" fill="#440154" d="M666.7,555.1L682.5,552.9L713.7,548.5L731.5,545.8L732.1,549.9L729.7,550.3L730.4,555.2L725.5,555.9L727.5,568.2L729.3,567.8L729.5,569.1L738.6,567.9L740,568.8L757.7,566L756.6,561.2L759.1,560.8L757.2,551.2L758.4,551L757.7,546.2L758.9,546L758.5,543.6L759.7,543.4L759.4,541.4L765.5,540.4L767.6,552.3L771.3,575.7L774.9,598.1L775.8,597.9L778,611.7L778.8,615.2L785.2,656.3L784.3,656.5L786.6,670.9L793.5,714.3L793.3,715L794.9,725.8L802.7,774L804.2,781.9L746.4,791.1L704.1,797.4L684.2,800.2L670.9,801.9L661.3,737.1L660.9,735L675.5,732.9L675.6,733.1L693.3,730.3L689.5,707.4L682.2,659.5L677.6,629L675.2,613.6ZM775.7,736.7L773.9,734.7L772.9,731.8L774.3,729.7L771.7,729.8L770.8,726.1L764.5,720.6L762,719.9L762.5,714.5L755.2,715.7L752.8,715.5L751.9,713.4L749.3,711.6L748.7,712.5L746.2,712.6L741,710.3L738.4,710.8L736.5,709.6L733.9,710.5L734.3,713.5L733.4,715.2L732.1,715.3L731.6,717L727.4,718L724.6,720.6L722.5,723.6L726.4,727.9L731.1,730.1L735.3,730.9L738.8,732.5L740.4,734.9L738.5,739.1L740,750.3L735.3,755.1L735.9,756.1L738.3,768.8L740.8,768.5L745.6,762.2L745.9,759.6L749,755.6L751.6,755.2L757.3,756.7L758.3,755.7L760.9,756.2L762,755.1L764.2,755L763.9,752.8L765.8,753.1L768.6,752.4L769.1,750.5L770.5,749.4L775,748.5L777.4,749.2L777.8,747.5L777.4,743.2L776.4,741.6L776.4,738.5Z"></path>
  <path id="003962600" fill="#450457" d="M313.1,266L315,265L318.1,261.6L320.9,261.4L322.1,260.4L324.5,261.8L328.8,262.5L331.8,264.2L334.1,263.3L337.2,263.4L338.6,262.8L343,263L347.6,262.3L349.4,263.3L353.5,263.8L356.1,261.7L357.6,258.8L360,258.3L362.2,256.4L364.2,255.9L367.3,252.7L369.5,251.4L371.1,248.3L374.1,250.1L377.1,249.7L378.6,247.5L382.2,252.6L385,253.8L387,257.7L388.3,257L387.6,255.5L389,254.9L390.8,255.9L391.5,253.9L390.1,252.2L385.8,249.1L387.3,242.9L390.9,243.3L391.6,245.3L393.6,243.1L392.7,241.2L390.8,240.8L385.8,237L387.2,235.2L391.7,234.9L397.3,234L399.9,234L401.6,231.8L406.4,231.2L407.8,228.3L410.3,227.2L414.3,224.1L415.4,222.4L418.1,220.6L418.8,221L420.6,219.2L423.3,219.6L428.5,218.8L430.7,220L435.3,220L435.8,217.9L435.5,215.2L436.4,212.2L438.8,211.7L438.2,208.1L439.2,207.7L441.7,211.4L444.5,212.8L446.4,212.9L448.4,211.7L448.8,213L453.8,213.7L455.1,215.8L456.3,219.4L458.6,222.2L460.9,222.1L462.7,223.8L462.3,224.8L464.6,227.1L466.8,228.2L466.4,234.5L467,235.3L469.6,234.9L469.8,236.3L474.5,237.8L476.9,236.6L477.1,235.6L479.2,235.8L479.5,239.4L480.6,243.6L483,242.6L484.5,244.1L484,247.1L485.7,248.3L483.3,250.2L483.2,252.2L485.4,254L487.4,254.3L487.8,255.9L489,255.4L492.4,282.1L464.4,285.5L426.7,290.7L422,291.1L398,294.2L372.8,297.4L320.6,303.8L317.7,304.1Z"></path>
  <path id="005000100" fill="#46075a" d="M627,239.1L631.3,241L632.6,242.2L635.2,240.6L638.1,240.2L640.4,238.5L643.7,237.8L649.6,238.7L655.4,237.8L656.6,238.7L660.9,237.3L668.5,236.7L671.5,239.9L671.9,242.5L676.6,241.7L677,241.1L682.5,240.1L683.8,239L689.8,236.7L690.2,239.4L693.4,241.5L693.7,245.2L696.7,246.2L699.2,245.5L697,241.6L701.3,240.8L703.1,239.9L707.9,239.1L710.5,239.9L710.3,238.1L714.5,237.7L715.4,233.9L715,228.7L712.5,228.4L714.3,227.5L719.6,226.3L722,226.6L732.3,224.9L736.1,225.6L741,224.8L742.8,236.4L744.2,243.2L744.5,243.1L753.6,301.8L753.9,301.7L756,316.3L762.3,356.2L762.5,356.9L756.9,357.9L726.5,362.7L717.4,364.3L688.1,368.9L658.7,373.5L647.1,375.2L643.9,354.3L643.7,353.4L639,320.3L640,320.1L634.7,285L631,261.6L630.4,261.7Z"></path>
  <path id="001962700" fill="#470e61" d="M772.9,731.8L771.9,731.1L769.3,731.5L768.2,733L765.6,733.7L764.1,732.5L762.6,732.9L762.2,730.1L756.4,730.9L756.9,730L754.5,728.3L754.2,729.6L753.9,731.6L752.1,731.6L749.9,731.9L750.3,735L748.6,734.9L749.4,737.2L753.1,737.3L753.1,736.1L755.5,737.6L760.2,741.8L762.1,741.1L762.8,738.9L759.1,739.4L757.9,738.1L765.1,737.8L767.4,736.1L770,735.1L775.3,735.9L775.7,736.7L776.4,738.5L776.4,741.6L777.4,743.2L777.8,747.5L777.4,749.2L775,748.5L770.5,749.4L769.1,750.5L768.6,752.4L765.8,753.1L763.9,752.8L764.2,755L762,755.1L760.9,756.2L758.3,755.7L757.3,756.7L751.6,755.2L749,755.6L745.9,759.6L745.6,762.2L740.8,768.5L738.3,768.8L735.9,756.1L735.3,755.1L740,750.3L738.5,739.1L740.4,734.9L738.8,732.5L735.3,730.9L731.1,730.1L726.4,727.9L722.5,723.6L724.6,720.6L727.4,718L731.6,717L732.1,715.3L733.4,715.2L734.3,713.5L733.9,710.5L736.5,709.6L738.4,710.8L741,710.3L746.2,712.6L748.7,712.5L749.3,711.6L751.9,713.4L752.8,715.5L755.2,715.7L762.5,714.5L762,719.9L764.5,720.6L770.8,726.1L771.7,729.8L774.3,729.7Z"></path>
  <path id="001962800" fill="#2e6f8e" d="M752.1,731.6L753.1,736.1L753.1,737.3L749.4,737.2L748.6,734.9L750.3,735L749.9,731.9Z"></path>
  <path id="001962900" fill="#38598c" d="M752.1,731.6L753.9,731.6L754.2,729.6L755.4,730.4L755.3,734.8L755.4,736.2L755.5,737.6L753.1,736.1Z"></path>
  <path id="001963000" fill="#2a768e" d="M756.4,730.9L756.6,733.7L755.3,734.8L755.4,730.4L754.2,729.6L754.5,728.3L756.9,730Z"></path>
  <path id="001963100" fill="#20938c" d="M756.4,730.9L762.2,730.1L762.6,732.9L760,733L757.6,733.6L756.6,733.7Z"></path>
  <path id="001963500" fill="#1fa088" d="M757.6,733.6L760,733L760,735L756.7,735.1Z"></path>
  <path id="001963600" fill="#60ca60" d="M755.7,736L756.7,735.1L760,735L760.1,735.8L755.8,737.1Z"></path>
  <path id="001963700" fill="#3f4889" d="M755.4,736.2L755.7,736L755.8,737.1L760.1,735.8L760,735L760,733L762.6,732.9L764.1,732.5L765.6,733.7L768.2,733L769.3,731.5L771.9,731.1L772.9,731.8L773.9,734.7L775.7,736.7L775.3,735.9L770,735.1L767.4,736.1L765.1,737.8L757.9,738.1L759.1,739.4L762.8,738.9L762.1,741.1L760.2,741.8L755.5,737.6Z"></path>
  <path id="003962700" fill="#46085c" d="M305.7,223.6L306.1,222.3L308.8,222L308.2,220.2L311.3,219.5L313.3,220.5L314,222.3L315.6,222.5L322.8,222.4L326.1,221.5L327.3,222.1L329.4,225.3L331.1,225.9L335.4,224.4L336.7,223.3L339.7,223.1L344,224.6L346.1,222.9L345.6,219.2L344,217.4L342.2,214L343.7,212.8L345.4,214L345.8,211.9L349.8,210.2L350.1,208.7L352,209.6L354.8,212.3L355.1,214.6L358.1,216.5L358.8,217.9L361.9,219.8L363.1,218.6L361,212.2L361.5,209.8L360.5,208L356,206L355.3,201L354.1,199.2L355.4,197.6L354.8,192.4L355.7,191.3L356.9,187.5L363.9,191.8L372.2,190.6L376,189.2L377.9,187.9L379.5,185.2L379.9,187.4L381.7,189.1L384.4,189.2L388.5,185.9L393.1,185L395.2,185.9L395,188L397.4,187.9L401.8,190.3L404.9,190.2L406.3,192.8L407,197L406.3,198L407.7,199.4L409.3,198.9L413.2,200.3L415.2,200.4L415.1,202.1L417.3,204.1L420,201.4L422.6,201.1L423.2,199.6L427.7,201L428.7,202L431.8,202.3L432.1,204.3L435.8,204.9L434.3,206.7L435.3,209.4L437.4,209.3L438.2,208.1L438.8,211.7L436.4,212.2L435.5,215.2L435.8,217.9L435.3,220L430.7,220L428.5,218.8L423.3,219.6L420.6,219.2L418.8,221L418.1,220.6L415.4,222.4L414.3,224.1L410.3,227.2L407.8,228.3L406.4,231.2L401.6,231.8L399.9,234L397.3,234L391.7,234.9L387.2,235.2L385.8,237L390.8,240.8L392.7,241.2L393.6,243.1L391.6,245.3L390.9,243.3L387.3,242.9L385.8,249.1L390.1,252.2L391.5,253.9L390.8,255.9L389,254.9L387.6,255.5L388.3,257L387,257.7L385,253.8L382.2,252.6L378.6,247.5L377.1,249.7L374.1,250.1L371.1,248.3L369.5,251.4L367.3,252.7L364.2,255.9L362.2,256.4L360,258.3L357.6,258.8L356.1,261.7L353.5,263.8L349.4,263.3L347.6,262.3L343,263L338.6,262.8L337.2,263.4L334.1,263.3L331.8,264.2L328.8,262.5L324.5,261.8L322.1,260.4L320.9,261.4L318.1,261.6L315,265L313.1,266L311.8,254.7L310.6,244.7L308.2,245Z"></path>
  <path id="003962800" fill="#460a5d" d="M295,164.6L309.6,163L337.4,159.5L352.1,157.5L380.8,153.8L384.8,156L385.8,159.5L385.9,164.8L389.3,167.2L390.7,170.1L389.3,171L389.2,174.6L392,176.4L393.9,178.9L394.2,182.2L396.3,183.2L395.2,185.9L393.1,185L388.5,185.9L384.4,189.2L381.7,189.1L379.9,187.4L379.5,185.2L377.9,187.9L376,189.2L372.2,190.6L363.9,191.8L356.9,187.5L355.7,191.3L354.8,192.4L355.4,197.6L354.1,199.2L355.3,201L356,206L360.5,208L361.5,209.8L361,212.2L363.1,218.6L361.9,219.8L358.8,217.9L358.1,216.5L355.1,214.6L354.8,212.3L352,209.6L350.1,208.7L349.8,210.2L345.8,211.9L345.4,214L343.7,212.8L342.2,214L344,217.4L345.6,219.2L346.1,222.9L344,224.6L339.7,223.1L336.7,223.3L335.4,224.4L331.1,225.9L329.4,225.3L327.3,222.1L326.1,221.5L322.8,222.4L315.6,222.5L314,222.3L313.3,220.5L311.3,219.5L308.2,220.2L308.8,222L306.1,222.3L305.7,223.6L301.1,185.9L297.7,186.3Z"></path>
  <path id="005000200" fill="#46327e" d="M689.7,235.7L693.2,235L694.7,236.1L701.2,234.4L701.8,233.1L704.1,232.4L704.1,230.8L705.4,230.2L707.5,230.1L712.5,228.4L715,228.7L715.4,233.9L714.5,237.7L710.3,238.1L710.5,239.9L707.9,239.1L703.1,239.9L701.3,240.8L697,241.6L699.2,245.5L696.7,246.2L693.7,245.2L693.4,241.5L690.2,239.4L689.8,236.7Z"></path>
  <path id="005000300" fill="#3c508b" d="M689.3,233.6L693.1,233.3L693.1,231.3L696.5,231.3L696.3,230.2L705,229L705.4,230.2L704.1,230.8L704.1,232.4L701.8,233.1L701.2,234.4L694.7,236.1L693.2,235L689.7,235.7Z"></path>
  <path id="005000400" fill="#1e9b8a" d="M691.6,231.3L693.1,231.3L693.1,233.3L689.3,233.6L689.2,231.4Z"></path>
  <path id="005000500" fill="#3e4a89" d="M671.9,242.5L675.8,239.9L679.2,233.1L680.9,232.5L687,232.3L689.3,233.6L689.7,235.7L689.8,236.7L683.8,239L682.5,240.1L677,241.1L676.6,241.7Z"></path>
  <path id="005000600" fill="#39568c" d="M691.6,231.3L689.2,231.4L689.3,233.6L687,232.3L680.9,232.5L680.6,230.3L678.8,228.1L683.5,229.5L686,229L685.7,226.3L688.3,225.8L691,227.9Z"></path>
  <path id="005000700" fill="#46075a" d="M608.8,123.6L620.5,121.9L622.1,120.4L637.5,118.1L687.4,110.5L722.9,104.9L726.3,126.6L726.6,126.5L728.6,140.8L727.5,140.8L734,181.9L734.8,184.2L737.3,201.1L741,224.8L736.1,225.6L732.3,224.9L722,226.6L719.6,226.3L714.3,227.5L712.5,228.4L707.5,230.1L705.4,230.2L705,229L696.3,230.2L696.5,231.3L693.1,231.3L691.6,231.3L691,227.9L688.3,225.8L685.7,226.3L686,229L683.5,229.5L678.8,228.1L680.6,230.3L680.9,232.5L679.2,233.1L675.8,239.9L671.9,242.5L671.5,239.9L668.5,236.7L660.9,237.3L656.6,238.7L655.4,237.8L649.6,238.7L643.7,237.8L640.4,238.5L638.1,240.2L635.2,240.6L632.6,242.2L631.3,241L627,239.1L621.9,202.7L622.6,202.6L621.4,195.4L618,173.7L617.2,171.5L613.5,146.2L612.2,144.5Z"></path>
  <path id="007967600" fill="#440154" d="M489,609.6L485.1,580.4L561.6,570.2L561.7,572.5L565.2,575L565.4,578L564,579.8L564.5,583.4L561.1,585.9L562.1,587.7L561.4,589.6L562,591.9L564.3,595.4L565.4,595.8L568.3,603L570.7,604.3L571.1,607.2L572.3,608.2L573,611L568.7,617.1L572.5,619.3L572.5,621.6L576.6,622.7L577.3,625.8L574.2,628.5L577.9,630.7L579.1,637.6L578.1,639.4L579.1,640.4L581,640.2L581.5,643.3L581,645.4L579.2,646.6L580.8,647.5L582.4,649.7L582.1,652.4L574.9,657.8L572.9,658.3L568.9,660.4L566.6,663.6L564.1,663.8L561.1,666L556,665.1L557,666.1L556.2,668.1L558.1,669.7L558.4,672.2L560.6,673.6L560.9,675.1L564.7,675.8L565.4,677.8L571.9,679.6L573.6,681.9L574,684.7L573.1,685.5L575.4,691.5L577.5,691.9L581.6,694.1L581.8,694.8L581.9,697L580.2,696.4L579.4,698.2L579.9,701.2L576.7,704.9L578.3,705.5L577.4,707.3L575.8,707.7L576.7,710.7L575.9,711.6L573.1,711L572.1,712L575,714L572.5,715.7L570.1,714.6L567.8,715.8L566.8,717.3L560.2,720.1L558.7,720L556.5,723.1L556.9,724.7L554.2,729.4L551.1,732.4L550.2,734.3L547.3,735.7L548.6,739.4L547.5,743.7L544.5,749L547,753.1L547.2,759.4L544.1,763.3L544.1,768.4L545.7,773.3L547,783.5L548.9,785.5L552.1,786.9L552.9,789.8L552.1,791.8L553.7,793L556.7,793L557.3,795L560.6,796L560.4,798.5L558.8,799.4L555.2,799L551.5,800.1L548.8,803L548.2,806.2L547.1,807.4L545.2,807.6L543.5,809.5L542.9,814.2L545.3,818.8L504,824.4L466.5,829.3L458.1,762.1L456.5,762.3L450.8,718.1L462.3,716.8L504.1,711.6L502.2,697.5L502.8,697.4L495.2,638.6L492.9,638.9ZM537.5,686.3L540.5,683.9L543.1,684.2L544,679.9L539.9,677.2L536.6,675.9L533.5,675.8L530.4,677.1L527.2,682.2L530.8,685.6L534.5,686.6Z"></path>
  <path id="007967700" fill="#3f4889" d="M537.5,686.3L536.6,686.2L535.1,682.8L536.4,681.1L536.1,679.2L533.5,675.8L536.6,675.9L539.9,677.2L544,679.9L543.1,684.2L540.5,683.9Z"></path>
  <path id="007967800" fill="#424186" d="M533.5,675.8L536.1,679.2L536.4,681.1L535.1,682.8L536.6,686.2L537.5,686.3L534.5,686.6L530.8,685.6L527.2,682.2L530.4,677.1Z"></path>
  <path id="007968000" fill="#450457" d="M581.8,694.8L585.6,693.3L587.2,693.5L589.6,691.5L589.6,690.4L591.6,688.9L594.7,685.2L596.2,684.8L599.8,687.2L603.6,693.9L603.4,697.1L604.2,699.7L602.5,701.3L602.9,702.5L602.2,705.9L606.5,708.3L609.4,708.3L611,707.2L614.4,708.5L618.8,708.1L621.6,706.7L626.3,708L627.8,709.7L630.2,710.5L630.6,714L633.9,716.2L636.8,716.5L640.7,719.5L644,720.4L645.3,721.9L645.3,724.4L646.7,728.2L648.4,729.4L651.4,728.6L651.8,731.1L654.6,733.4L658.2,733.9L658.9,737.7L661.3,737.1L670.9,801.9L653.9,803.9L602.2,811.1L583.9,813.5L545.3,818.8L542.9,814.2L543.5,809.5L545.2,807.6L547.1,807.4L548.2,806.2L548.8,803L551.5,800.1L555.2,799L558.8,799.4L560.4,798.5L560.6,796L557.3,795L556.7,793L553.7,793L552.1,791.8L552.9,789.8L552.1,786.9L548.9,785.5L547,783.5L545.7,773.3L544.1,768.4L544.1,763.3L547.2,759.4L547,753.1L544.5,749L547.5,743.7L548.6,739.4L547.3,735.7L550.2,734.3L551.1,732.4L554.2,729.4L556.9,724.7L556.5,723.1L558.7,720L560.2,720.1L566.8,717.3L567.8,715.8L570.1,714.6L572.5,715.7L575,714L572.1,712L573.1,711L575.9,711.6L576.7,710.7L575.8,707.7L577.4,707.3L578.3,705.5L576.7,704.9L579.9,701.2L579.4,698.2L580.2,696.4L581.9,697Z"></path>
  <path id="007968100" fill="#440154" d="M561.6,570.2L597.7,565.6L666.4,555.2L666.7,555.1L675.2,613.6L677.6,629L682.2,659.5L689.5,707.4L693.3,730.3L675.6,733.1L675.5,732.9L660.9,735L661.3,737.1L658.9,737.7L658.2,733.9L654.6,733.4L651.8,731.1L651.4,728.6L648.4,729.4L646.7,728.2L645.3,724.4L645.3,721.9L644,720.4L640.7,719.5L636.8,716.5L633.9,716.2L630.6,714L630.2,710.5L627.8,709.7L626.3,708L621.6,706.7L618.8,708.1L614.4,708.5L611,707.2L609.4,708.3L606.5,708.3L602.2,705.9L602.9,702.5L602.5,701.3L604.2,699.7L603.4,697.1L603.6,693.9L599.8,687.2L596.2,684.8L594.7,685.2L591.6,688.9L589.6,690.4L589.6,691.5L587.2,693.5L585.6,693.3L581.8,694.8L581.6,694.1L577.5,691.9L575.4,691.5L573.1,685.5L574,684.7L573.6,681.9L571.9,679.6L565.4,677.8L564.7,675.8L560.9,675.1L560.6,673.6L558.4,672.2L558.1,669.7L556.2,668.1L557,666.1L556,665.1L561.1,666L564.1,663.8L566.6,663.6L568.9,660.4L572.9,658.3L574.9,657.8L582.1,652.4L582.4,649.7L580.8,647.5L579.2,646.6L581,645.4L581.5,643.3L581,640.2L579.1,640.4L578.1,639.4L579.1,637.6L577.9,630.7L574.2,628.5L577.3,625.8L576.6,622.7L572.5,621.6L572.5,619.3L568.7,617.1L573,611L572.3,608.2L571.1,607.2L570.7,604.3L568.3,603L565.4,595.8L564.3,595.4L562,591.9L561.4,589.6L562.1,587.7L561.1,585.9L564.5,583.4L564,579.8L565.4,578L565.2,575L561.7,572.5Z"></path>
  <path id="009956400" fill="#482576" d="M744.7,493.8L742.8,490.8L743.6,488.4L743.1,485.7L740.4,484.9L739.2,483L738.6,480.6L740.1,479.6L742.4,479.4L742.5,475.8L748,474.8L750.5,475.4L751.9,474.7L758.6,473.6L760,475.7L760.2,478.4L761.8,480.3L759.3,480.2L759.8,483.2L758.3,485.2L760.5,485.8L762.2,487.7L760,487.8L759.1,490L753.9,489.6L747.7,490.2L745.3,490.7L745.9,492.7Z"></path>
  <path id="009956500" fill="#46327e" d="M739.2,483L740.4,484.9L743.1,485.7L743.6,488.4L742.8,490.8L744.7,493.8L744.1,496L742,496.4L737.6,493.7L734.2,494.7L735.1,490.8L734.6,487.6L736.8,487.1L737.4,485.6L736.9,481.4Z"></path>
  <path id="009956600" fill="#440154" d="M639.7,376.4L647.1,375.2L658.7,373.5L688.1,368.9L717.4,364.3L726.5,362.7L756.9,357.9L762.5,356.9L784.6,353.2L788.4,375.1L791.6,395.1L794.9,414.9L795.1,417.3L801.1,454.2L803,466.9L804.1,473.6L804.8,473.5L809.6,502.8L781.5,507.4L760.6,511.1L765.7,540.4L765.5,540.4L759.4,541.4L759.7,543.4L758.5,543.6L758.9,546L757.7,546.2L758.4,551L757.2,551.2L759.1,560.8L756.6,561.2L757.7,566L740,568.8L738.6,567.9L729.5,569.1L729.3,567.8L727.5,568.2L725.5,555.9L730.4,555.2L729.7,550.3L732.1,549.9L731.5,545.8L713.7,548.5L682.5,552.9L666.7,555.1L666.4,555.2L665.4,547.9L659.9,511L659,503.8L657.6,497.1L658.2,497L655.9,481.5L649.1,438.3L649.4,438.3L640.7,380L640.2,380.1ZM676.9,480.9L678,481.4L679,483.7L682.8,483.1L688.4,484L689.3,481L688.4,478.9L684.9,478L684.1,477L682.7,477.9L680.9,477.4L677.7,478.2ZM744.7,493.8L745.9,492.7L745.3,490.7L747.7,490.2L753.9,489.6L759.1,490L760,487.8L762.2,487.7L760.5,485.8L758.3,485.2L759.8,483.2L759.3,480.2L761.8,480.3L760.2,478.4L760,475.7L758.6,473.6L751.9,474.7L750.5,475.4L748,474.8L742.5,475.8L742.4,479.4L740.1,479.6L738.6,480.6L739.2,483L736.9,481.4L737.4,485.6L736.8,487.1L734.6,487.6L735.1,490.8L734.2,494.7L737.6,493.7L742,496.4L744.1,496Z"></path>
  <path id="009956700" fill="#443983" d="M676.9,480.9L677.7,478.2L680.9,477.4L682.7,477.9L684.1,477L684.9,478L688.4,478.9L689.3,481L688.4,484L682.8,483.1L679,483.7L678,481.4Z"></path>
  <path id="011950200" fill="#450559" d="M722.9,104.9L760.5,99.1L795.9,93.4L845.6,85.3L849.4,107.1L855.9,144.8L852.9,144L849.6,144.3L841.9,147.8L834.3,147.5L825.5,146.2L822.4,148.4L818.1,148.5L816.1,150.6L814.2,154.9L811.3,154.6L809,153.5L805.8,159.4L800.4,160.9L797.8,156.9L794.1,155.5L791.8,155.6L787.8,151.6L785.7,156.2L783.9,158.7L781.9,159.1L780.7,161.3L781.5,165.8L780.1,168.1L783.5,174L782.2,179L783.1,180.7L789,184.1L789.6,187.4L797.5,193.7L796.8,195.5L796.3,201.6L799.5,206.1L799.4,209.2L801.6,208.6L805,206.4L808.3,208L809.8,207.6L811.7,205.6L810.2,209.8L810.9,211L811.5,215.5L814.8,216.1L818.3,218.7L819.2,223.1L818.7,225.5L819.7,230.1L744.5,243.1L744.2,243.2L742.8,236.4L741,224.8L737.3,201.1L734.8,184.2L734,181.9L727.5,140.8L728.6,140.8L726.6,126.5L726.3,126.6Z"></path>
  <path id="011950300" fill="#450559" d="M855.9,144.8L867.1,210.3L869.2,221.9L819.7,230.1L818.7,225.5L819.2,223.1L818.3,218.7L814.8,216.1L811.5,215.5L810.9,211L810.2,209.8L811.7,205.6L809.8,207.6L808.3,208L805,206.4L801.6,208.6L799.4,209.2L799.5,206.1L796.3,201.6L796.8,195.5L797.5,193.7L789.6,187.4L789,184.1L783.1,180.7L782.2,179L783.5,174L780.1,168.1L781.5,165.8L780.7,161.3L781.9,159.1L783.9,158.7L785.7,156.2L787.8,151.6L791.8,155.6L794.1,155.5L797.8,156.9L800.4,160.9L805.8,159.4L809,153.5L811.3,154.6L814.2,154.9L816.1,150.6L818.1,148.5L822.4,148.4L825.5,146.2L834.3,147.5L841.9,147.8L849.6,144.3L852.9,144Z"></path>
  <path id="013000100" fill="#433d84" d="M329.5,527.9L330.5,529.8L330.5,532.2L328.2,534.4L325.9,532.1L323.6,531.2L320.3,531.6L319.2,530.5L320.4,529L317.2,524.4L318.7,524.8L319.6,522.8L324,522.6L326,525.3L326.5,527.1Z"></path>
  <path id="013000200" fill="#3f4889" d="M319.2,530.5L320.3,531.6L323.6,531.2L325.9,532.1L325.1,533.5L321.4,534L319,535.5L314.8,536.2L312.2,534L316.8,530.8Z"></path>
  <path id="013000300" fill="#440154" d="M250.4,534.6L268.2,532.7L305.3,528.3L307.8,527.1L308.3,524.8L311.8,523.4L317.2,524.4L320.4,529L319.2,530.5L316.8,530.8L312.2,534L314.8,536.2L319,535.5L321.4,534L325.1,533.5L325.9,532.1L328.2,534.4L330.5,532.2L330.5,529.8L329.5,527.9L330.6,525L335.5,524.4L338,522.6L338.7,520.5L340.6,517.6L352.7,516.4L366.3,514.6L378.9,513.3L382.5,512.7L395.9,511L394.2,496.6L393.7,493.5L388.9,456.9L383.9,417.4L383.6,415.5L453,406.3L452.3,401.4L459.8,400.4L460.4,405.3L462.6,405L468.6,448.7L468.4,448.8L470.3,463.1L472.1,462.9L477.8,505.7L480,521.4L474.8,522.1L482.7,580.7L485.1,580.4L489,609.6L474.8,611.5L413.2,619.2L386.4,622.4L361.7,625.5L341,628L297.5,633L294.2,604.2L291,604.6L285.4,560.6L277.7,561.4L277.1,559.6L278.2,558.9L275.4,556L277.2,554.7L275.8,553.6L271,552.4L268.6,549.7L266.8,549.6L266,551.5L263.5,550.3L263.2,548.9L264.3,546.9L266.3,545.8L265.7,544.7L261.3,544.1L258.4,541.3L256.2,537.6L255.1,538L251.9,536.6Z"></path>
  <path id="013000400" fill="#450457" d="M139.2,351.7L141.7,352.4L143.9,356.1L144.3,358.2L146.3,358L146.4,360L148,360.9L152,357.9L156.4,360.5L161.3,359.5L164,357.7L164.4,360.2L162.6,362L162.9,362.9L165.8,363.8L166.4,367.3L170.6,369.9L169,371.5L171.3,373.4L169.9,374.6L167.3,375.2L166.4,377.3L166.6,379.5L168.8,380.8L170.4,379.9L171.7,381.1L175.6,383.2L176.4,381.3L178.2,379.6L179.6,380L181.9,377.1L185.4,375.3L189.8,374.1L188.6,370.4L189.1,368.2L190.6,366.9L190.1,363.5L191.4,360.7L194.7,359.5L195.9,355.7L197.7,357.3L198.9,356.8L200,354.3L202.9,352.8L204.4,354.7L208.1,356.1L209.9,354.2L211.3,354L212,356.8L214.3,357.3L215.8,356.7L217.1,359.4L219.7,359.9L222,363.9L224.3,363.9L226.7,370.4L230.5,370.1L232.5,371.3L233.9,374.7L234.4,375.9L237.7,376.1L239,376.9L240.9,380.6L244.7,382.2L242.6,383L236.8,390.2L230.7,396.8L229.2,399.8L230.7,403.1L228.4,406.1L229,407.8L226.8,411.2L224.1,412.5L221.2,415L220.4,422.9L220.9,427.3L220.2,430.3L221.1,433.2L221.7,438L222.8,439.5L224,451L228.8,493.2L231.8,518.2L231.4,516.3L227.2,515.5L225.7,513.1L224.1,513.8L222.3,512.9L219.4,513.4L218.8,510.2L217.1,507.2L218.5,505.4L217.1,501.5L212.6,496.6L208.8,495.2L207.1,491.4L206.9,489L205.2,489.4L203.5,487.2L202.4,482.7L200.2,480.8L200.7,478.5L199.6,477.3L199.5,475.2L197.2,472.6L198.8,470.8L197.8,469.7L199,467L198.9,464.7L195.3,461.6L195.1,455.5L193.3,454.3L190.4,456.1L187.7,456.4L185.9,439.9L149.1,443.6L142.8,384.4L142.6,384.5Z"></path>
  <path id="013940100" fill="#450559" d="M244.7,382.2L250.6,390.4L253.6,392L255.1,405.4L284.4,402.1L284.8,404.5L299.5,402.7L300.1,407.7L314.9,405.9L315.7,413.3L317.1,413.1L315.2,416.8L321.1,425.3L319.4,427.9L319.1,430.7L316.3,433.7L315.5,435.9L315.6,440.4L314.4,449.1L315.1,452.5L316.7,455.6L320.8,460.1L315.1,464.4L311.9,464.6L310.8,464L311.3,467.3L314.8,469.3L316,471.5L318.4,486.8L317.5,492L320.2,513.8L317.9,516.6L315.5,516.9L316.2,522.8L317.2,524.4L311.8,523.4L308.3,524.8L307.8,527.1L305.3,528.3L268.2,532.7L250.4,534.6L249.1,530.2L248.3,529.9L246.8,526.2L245.5,525.6L243.3,522.2L240.1,523.7L238.1,521.1L235.8,520.5L235.2,519.3L232.5,519.2L231.8,518.2L228.8,493.2L224,451L222.8,439.5L221.7,438L221.1,433.2L220.2,430.3L220.9,427.3L220.4,422.9L221.2,415L224.1,412.5L226.8,411.2L229,407.8L228.4,406.1L230.7,403.1L229.2,399.8L230.7,396.8L236.8,390.2L242.6,383Z"></path>
  <path id="013940201" fill="#460a5d" d="M317.1,413.1L330.4,411.5L331,416.4L345.8,414.6L346.4,419.5L361.1,417.7L361.4,420.1L383.9,417.4L388.9,456.9L386.3,458.3L382.9,458.4L381.3,459.9L375.5,470.8L371.9,475.6L366.7,481.3L363.6,481.7L362.9,482.8L360.4,482.5L362.3,484.6L361.9,486.3L359.8,488.2L359.9,490.4L357.8,493.6L355.9,492L353.4,491.1L351.9,488.5L346.2,486L337.4,480.5L332.4,478.6L328.8,478.2L321.7,476.5L319.3,475L316,471.5L314.8,469.3L311.3,467.3L310.8,464L311.9,464.6L315.1,464.4L320.8,460.1L316.7,455.6L315.1,452.5L314.4,449.1L315.6,440.4L315.5,435.9L316.3,433.7L319.1,430.7L319.4,427.9L321.1,425.3L315.2,416.8Z"></path>
  <path id="013940202" fill="#470d60" d="M316,471.5L319.3,475L321.7,476.5L328.8,478.2L332.4,478.6L337.4,480.5L346.2,486L351.9,488.5L353.4,491.1L355.9,492L357.8,493.6L354.8,492.7L352.4,493L351.6,494.7L353.7,496.8L354.5,496.4L359.8,497.2L362.7,496.6L364.6,496.2L366.6,497.2L368.5,496.4L370.5,493.7L370.6,490.9L369.4,489.2L370.2,486.5L371.6,484.6L372.8,481.5L368.6,482.3L368.5,481L366.7,481.3L371.9,475.6L375.5,470.8L381.3,459.9L382.9,458.4L386.3,458.3L388.9,456.9L393.7,493.5L394.2,496.6L395.9,511L382.5,512.7L378.9,513.3L366.3,514.6L352.7,516.4L340.6,517.6L338.7,520.5L338,522.6L335.5,524.4L330.6,525L329.5,527.9L326.5,527.1L326,525.3L324,522.6L319.6,522.8L318.7,524.8L317.2,524.4L316.2,522.8L315.5,516.9L317.9,516.6L320.2,513.8L317.5,492L318.4,486.8Z"></path>
  <path id="013940300" fill="#424086" d="M363.4,495.4L365.3,495.2L365,492.7L363.6,481.7L366.7,481.3L368.5,481L368.6,482.3L372.8,481.5L371.6,484.6L370.2,486.5L369.4,489.2L370.6,490.9L370.5,493.7L368.5,496.4L366.6,497.2L364.6,496.2L362.7,496.6Z"></path>
  <path id="013940400" fill="#3f4788" d="M357.8,493.6L359.9,490.4L359.8,488.2L361.9,486.3L362.3,484.6L360.4,482.5L362.9,482.8L363.6,481.7L365,492.7L362.5,493.1L363.4,495.4L362.7,496.6L359.8,497.2L354.5,496.4L353.7,496.8L351.6,494.7L352.4,493L354.8,492.7Z"></path>
  <path id="013940500" fill="#1e9d89" d="M365,492.7L365.3,495.2L363.4,495.4L362.5,493.1Z"></path>
  <path id="015957700" fill="#450457" d="M839.1,497.9L844.5,497.1L864.2,493.8L875.8,491.5L893,488.6L914.1,485L917.2,503.8L928.8,571.7L927.3,573.3L925.8,572.9L924.7,573.9L922,573.2L918.3,574.3L915.4,572.9L911.5,572L910.3,570.9L906.8,572.8L903.7,570.6L901.2,570.3L902.5,578.8L903.3,584.2L902,583.1L895.7,581.6L893.1,580.6L891.5,581.1L889.2,579.9L887.5,577.8L889.4,576.7L885.8,575.4L884.3,576.6L883.6,574.6L881.2,573.9L879.4,575L875.8,573.3L875.2,569.7L872.5,567.4L871.1,567.2L870,565.3L865,564.7L858.9,566.7L857.9,565.5L860.9,564.1L861,561.3L857.4,560.7L855.6,561.5L853,560.9L852,558.8L849.3,559.2L845.6,537.4Z"></path>
  <path id="015957800" fill="#46337f" d="M911.5,572L912.4,578.7L913.1,578.5L913.5,581.7L908.5,582.5L906.7,581L905.7,578.6L902.5,578.8L901.2,570.3L903.7,570.6L906.8,572.8L910.3,570.9Z"></path>
  <path id="015957900" fill="#472c7a" d="M911.5,572L915.4,572.9L918.3,574.3L922,573.2L924.7,573.9L925.8,572.9L927.3,573.3L928.8,571.7L931.8,589.6L930.7,590.9L928.5,590.1L926.5,586.8L921.6,583.8L919.3,584.3L913.5,581.7L913.1,578.5L912.4,578.7Z"></path>
  <path id="015958000" fill="#450559" d="M849.3,559.2L852,558.8L853,560.9L855.6,561.5L857.4,560.7L861,561.3L860.9,564.1L857.9,565.5L858.9,566.7L865,564.7L870,565.3L871.1,567.2L872.5,567.4L875.2,569.7L875.8,573.3L879.4,575L881.2,573.9L883.6,574.6L884.3,576.6L885.8,575.4L889.4,576.7L887.5,577.8L889.2,579.9L891.5,581.1L893.1,580.6L895.7,581.6L902,583.1L903.3,584.2L902.5,578.8L905.7,578.6L906.7,581L908.5,582.5L913.5,581.7L919.3,584.3L921.6,583.8L926.5,586.8L928.5,590.1L930.7,590.9L931.8,589.6L942.3,651.3L944,661.2L914.9,666.1L887.4,670.6L868.1,673.7L865.7,658.9L856.1,600.4L855.7,597.6L850.8,568.6Z"></path>
  <path id="017967800" fill="#2c728e" d="M370.2,387.7L371,386.6L370.2,384.6L374.2,385.9L374,388.2L371,389.4Z"></path>
  <path id="017967900" fill="#440154" d="M233.9,374.7L238.9,374.1L238.9,373.6L256,371.7L260.9,370.9L259.3,356.2L281.4,353.6L279.3,339.1L294.6,337.2L292.7,322.3L322.4,318.8L329.8,317.8L331.7,332.6L339.3,331.7L340.9,346.7L355.6,344.9L356.8,354.4L372.1,352.2L371.1,355.8L374,357L400.8,353.7L402.7,368L432.3,364.2L434.2,379L449.1,376.9L452.3,401.4L453,406.3L383.6,415.5L383.9,417.4L361.4,420.1L361.1,417.7L346.4,419.5L345.8,414.6L331,416.4L330.4,411.5L317.1,413.1L315.7,413.3L314.9,405.9L300.1,407.7L299.5,402.7L284.8,404.5L284.4,402.1L255.1,405.4L253.6,392L250.6,390.4L244.7,382.2L240.9,380.6L239,376.9L237.7,376.1L234.4,375.9ZM370.2,387.7L371,389.4L374,388.2L374.2,385.9L370.2,384.6L371,386.6Z"></path>
  <path id="019955100" fill="#440154" d="M456.3,219.4L465.2,218.4L486,215.7L497.2,214L517.9,211.4L542.1,208.1L570.7,204.1L570.5,203.2L600.9,198.8L600.8,198.5L615.4,196.4L621.4,195.4L622.6,202.6L621.9,202.7L627,239.1L630.4,261.7L631,261.6L634.7,285L640,320.1L639,320.3L643.7,353.4L643.9,354.3L647.1,375.2L639.7,376.4L594.3,383.3L585.6,384.7L563.7,387.8L512.3,394.9L512.2,393.6L510.9,384.2L510.5,384.3L504.5,340.4L502.8,340.7L500.7,326.1L494.6,281.8L492.4,282.1L489,255.4L487.8,255.9L487.4,254.3L485.4,254L483.2,252.2L483.3,250.2L485.7,248.3L484,247.1L484.5,244.1L483,242.6L480.6,243.6L479.5,239.4L479.2,235.8L477.1,235.6L476.9,236.6L474.5,237.8L469.8,236.3L469.6,234.9L467,235.3L466.4,234.5L466.8,228.2L464.6,227.1L462.3,224.8L462.7,223.8L460.9,222.1L458.6,222.2ZM532.4,245.8L534.6,245.1L535.5,246.3L533.7,247.1L536.7,248.6L539.3,248.7L537.1,251.4L539.3,253.7L541.2,250.6L541.1,252.6L543.5,250L545.8,249.9L547.1,247.4L546.9,245.1L545.6,242.9L546.9,241.3L545.7,240.9L540.2,237.4L538,234.7L532.6,234.6L533.1,237.3L534.8,238.4L536.8,241.1L538.4,241.6L535.2,243.6L533.8,243.5Z"></path>
  <path id="019955200" fill="#463480" d="M532.4,245.8L533.8,243.5L535.2,243.6L538.4,241.6L536.8,241.1L534.8,238.4L533.1,237.3L532.6,234.6L538,234.7L540.2,237.4L545.7,240.9L546.9,241.3L545.6,242.9L546.9,245.1L547.1,247.4L545.8,249.9L543.5,250L541.1,252.6L541.2,250.6L539.3,253.7L537.1,251.4L539.3,248.7L536.7,248.6L533.7,247.1L535.5,246.3L534.6,245.1Z"></path>
  <path id="021000200" fill="#2a768e" d="M855.2,753.1L860.6,749.3L861.9,749.5L865.7,749.5L865.7,749.6L865.8,750.3L860.5,752.2L855.3,753.8Z"></path>
  <path id="021000300" fill="#2a788e" d="M855.3,753.8L860.5,752.2L860.9,754.9L858.5,755.3L855.8,756.2Z"></path>
  <path id="021000401" fill="#375a8c" d="M858.5,755.3L860.9,754.9L863.8,754.4L862.9,758.2L863.9,762.3L860.6,763.5L857.8,758.7L858.8,757.7Z"></path>
  <path id="021000402" fill="#2e6f8e" d="M860.5,752.2L865.8,750.3L865.7,749.6L867.2,749.5L869.9,750.7L867.2,753.2L865.8,753L863.8,754.4L860.9,754.9Z"></path>
  <path id="021000501" fill="#22a785" d="M862.1,749.2L863.8,749.2L865.2,747.9L866.7,746.5L869.6,746.1L871.7,745.7L868.6,748.6L865.7,749.5L861.9,749.5Z"></path>
  <path id="021000600" fill="#42be71" d="M860.9,747.4L862.2,747.2L864.7,746.8L865.2,747.9L863.8,749.2L862.1,749.2Z"></path>
  <path id="021000700" fill="#26828e" d="M855.9,750.5L855.4,749.4L856.9,750.1L859.1,748.4L858.6,747.7L859.8,747.5L860.9,747.4L862.1,749.2L861.9,749.5L860.6,749.3L855.2,753.1Z"></path>
  <path id="021000800" fill="#22a785" d="M862.6,745.9L862.2,747.2L860.9,747.4L859.8,747.5L859.6,746.5Z"></path>
  <path id="021000900" fill="#287d8e" d="M854.8,744.5L854.9,744.5L856.7,744.3L856.8,744.9L858.6,747.7L855.9,748.1L855.6,745.9L853.9,746.2Z"></path>
  <path id="021001000" fill="#31b57b" d="M855.9,748.1L858.6,747.7L858.6,747.7L859.1,748.4L856.9,750.1L855.4,749.4Z"></path>
  <path id="021001100" fill="#3c4f8a" d="M854.8,744.5L853.9,746.2L855.6,745.9L855.9,748.1L855.4,749.4L855.9,750.5L852.6,751.2L850.3,750.9L850.3,746L853.1,744.5Z"></path>
  <path id="021001200" fill="#26818e" d="M854.5,738.3L855.9,738.6L856.7,744.3L854.9,744.5L854.1,743.4L853.3,738.6Z"></path>
  <path id="021001300" fill="#25848e" d="M856.7,744.3L855.9,738.6L860.2,737.5L859,742.7L859.4,745.1L856.8,744.9Z"></path>
  <path id="021001401" fill="#1f968b" d="M862.6,745.9L862.4,744.6L861.8,743.7L864.2,741.9L864.6,744.3L864.7,746.8L862.2,747.2Z"></path>
  <path id="021001402" fill="#3e4a89" d="M859.4,745.1L859,742.7L860.2,737.5L863.5,737L864.2,741.9L861.8,743.7L862.4,744.6Z"></path>
  <path id="021001501" fill="#375a8c" d="M864.2,741.9L863.5,737L868.3,736.3L869.5,738.6L868.6,739.9L869.2,743.6L867.3,743.9L867.5,745.1L864.6,744.3Z"></path>
  <path id="021001502" fill="#1f958b" d="M864.6,744.3L867.5,745.1L867.3,743.9L869.2,743.6L869.6,746.1L866.7,746.5L865.2,747.9L864.7,746.8Z"></path>
  <path id="021001901" fill="#460b5e" d="M841.7,662.7L865.7,658.9L868.1,673.7L887.4,670.6L914.9,666.1L911.1,669.9L908.4,676.6L909.1,680.6L910.7,683.5L910.7,687.1L909.5,688.9L878.8,708.7L879.7,714.5L882.1,714.1L885.1,733.1L881.7,735.6L879.8,740.5L877.3,742.4L869.2,743.6L868.6,739.9L869.5,738.6L868.3,736.3L863.5,737L860.2,737.5L855.9,738.6L854.5,738.3L853.2,730L847.2,716.1L843.2,699.3L839.5,692.4L838.1,684.8L839.1,680.1Z"></path>
  <path id="021001902" fill="#46085c" d="M786.6,670.9L807.4,667.6L841.7,662.7L839.1,680.1L838.1,684.8L839.5,692.4L843.2,699.3L847.2,716.1L853.2,730L854.5,738.3L853.3,738.6L854.1,743.4L854.9,744.5L854.8,744.5L853.1,744.5L850.3,746L850.3,750.9L852.6,751.2L855.9,750.5L855.2,753.1L855.3,753.8L855.8,756.2L858.5,755.3L858.8,757.7L857.8,758.7L860.6,763.5L863.9,762.3L865.8,765.2L868.4,771.4L858,773.4L804.2,781.9L802.7,774L794.9,725.8L793.3,715L793.5,714.3Z"></path>
  <path id="021002000" fill="#460a5d" d="M863.8,754.4L865.8,753L867.2,753.2L869.9,750.7L867.2,749.5L865.7,749.6L865.7,749.5L868.6,748.6L871.7,745.7L869.6,746.1L869.2,743.6L877.3,742.4L879.8,740.5L881.7,735.6L885.1,733.1L882.1,714.1L879.7,714.5L878.8,708.7L909.5,688.9L910.7,687.1L910.7,683.5L909.1,680.6L908.4,676.6L911.1,669.9L914.9,666.1L944,661.2L952.2,709.8L955.5,729.7L960,756L880.7,769.2L868.4,771.4L865.8,765.2L863.9,762.3L862.9,758.2Z"></path>
  <path id="021980801" fill="#440154" d="M856.8,744.9L859.4,745.1L862.4,744.6L862.6,745.9L859.6,746.5L859.8,747.5L858.6,747.7L858.6,747.7Z"></path>
  <path id="023978000" fill="#46085c" d="M39,594.3L43.1,593.9L43.2,596.4L45.8,596.2L46.1,598.7L47.4,598.6L47.5,600.8L49,601.9L51.3,601.7L51.4,602.9L56.2,602.4L57.5,603.6L58.4,612.2L62.2,611.9L61.4,604.4L59.2,604.6L58.4,597.3L57.2,597.4L57,594.9L55.7,595.1L54,577.8L52,570.2L51.1,561L54.7,560.7L54.6,558.1L53.3,556.6L49.6,558.8L44.5,558.3L42.6,558.5L44.3,560.3L42,563.7L41,563.6L40.3,561L35.7,558.9L30.3,501.5L28.3,481.2L57,478.4L58.3,492.1L87.6,489.2L89.4,507.6L88.3,507.8L89.6,522.3L94.2,566.6L89.7,567L90.8,578.7L95,578.3L98.7,613.9L99.4,622.7L105.3,622.1L108.3,649.5L106.5,649.2L105.8,655.9L107.8,660.7L108.2,663.7L107.5,665.1L108.7,666.4L102.5,667L102.7,669.3L107.6,668.9L108.2,676.1L101,676.8L100.5,672.2L98.1,672.5L98.3,674.9L88.6,675.9L88.2,672L78.4,673.1L78.5,674.5L76,674.8L75.7,669.3L72.6,669.4L68.3,627.6L68.2,625.8L55.7,627.1L49.9,627.6L50.2,631L49.9,635.2L47.1,636.1L44.6,635.6L42.7,636.3L41,618.7Z"></path>
  <path id="023978100" fill="#481c6e" d="M35.7,558.9L40.3,561L41,563.6L42,563.7L44.3,560.3L42.6,558.5L44.5,558.3L49.6,558.8L53.3,556.6L54.6,558.1L54.7,560.7L51.1,561L52,570.2L54,577.8L55.7,595.1L57,594.9L57.2,597.4L58.4,597.3L59.2,604.6L61.4,604.4L62.2,611.9L58.4,612.2L57.5,603.6L56.2,602.4L51.4,602.9L51.3,601.7L49,601.9L47.5,600.8L47.4,598.6L46.1,598.7L45.8,596.2L43.2,596.4L43.1,593.9L39,594.3L37.9,581.7Z"></path>
  <path id="023978200" fill="#440154" d="M42.7,636.3L44.6,635.6L47.1,636.1L49.9,635.2L50.2,631L49.9,627.6L55.7,627.1L68.2,625.8L68.3,627.6L72.6,669.4L75.7,669.3L76,674.8L78.5,674.5L78.4,673.1L88.2,672L88.6,675.9L98.3,674.9L98.1,672.5L100.5,672.2L101,676.8L108.2,676.1L107.6,668.9L102.7,669.3L102.5,667L108.7,666.4L107.5,665.1L108.2,663.7L107.8,660.7L105.8,655.9L106.5,649.2L108.3,649.5L108.4,651.1L123.1,649.2L123.2,649.8L140,648.2L150.7,646.9L150.8,647.9L170.1,645.9L174.7,690.6L175.7,690.6L176.2,695L178.8,719.7L183.2,763.4L181.3,763.7L145.7,767.1L114.8,770.2L56,775.8L46.8,680.2ZM105.5,730.9L107.7,731.6L111.8,734.5L114.4,738.6L115.6,737.2L117.6,737.6L118.1,739.9L119.8,741.1L121.2,739.8L123.4,740.1L125.4,738.5L123.6,737.4L125.4,736.2L125.4,735L123.6,734.1L124.5,731.1L123.5,729.2L123.9,725.9L121.3,723.1L121,719.7L116.7,719.9L115.7,718.7L111.6,717.9L110.8,720.2L112.7,721.5L112.3,723.7L109.6,722.2L105.8,722.6L107.1,724.8Z"></path>
  <path id="023978400" fill="#482071" d="M105.5,730.9L107.1,724.8L105.8,722.6L109.6,722.2L112.3,723.7L112.7,721.5L110.8,720.2L111.6,717.9L115.7,718.7L116.7,719.9L121,719.7L121.3,723.1L123.9,725.9L123.5,729.2L124.5,731.1L123.6,734.1L125.4,735L125.4,736.2L123.6,737.4L125.4,738.5L123.4,740.1L121.2,739.8L119.8,741.1L118.1,739.9L117.6,737.6L115.6,737.2L114.4,738.6L111.8,734.5L107.7,731.6Z"></path>
  <path id="025000200" fill="#228d8d" d="M623.7,488.3L624.2,487.1L628.1,486.5L628.2,487.9L628.3,488.4L625.3,490.5L623.7,491L623.6,490.2Z"></path>
  <path id="025000300" fill="#2ab07f" d="M625.3,490.5L628.3,488.4L628.7,490.8L625.4,491.4Z"></path>
  <path id="025000400" fill="#2ab07f" d="M628.3,488.4L628.2,487.9L630.7,487.6L630,490.6L628.7,490.8Z"></path>
  <path id="025000501" fill="#37b878" d="M628.7,490.8L630,490.6L632.3,490.5L631.8,493L629.2,493.2Z"></path>
  <path id="025000502" fill="#31b57b" d="M630.7,487.6L631.6,487.8L632.3,490.5L630,490.6Z"></path>
  <path id="025000600" fill="#277f8e" d="M625.7,492.1L625.4,491.4L628.7,490.8L629.2,493.2L631.8,493L631.3,493.5L629.3,496L625.4,496.9Z"></path>
  <path id="025000700" fill="#29af7f" d="M623.9,492.2L623.7,491L625.3,490.5L625.4,491.4L625.7,492.1L624.1,493.9Z"></path>
  <path id="025000800" fill="#1f948c" d="M619.8,492.3L621.1,490.9L623.6,490.2L623.7,491L623.9,492.2L620.1,495.1Z"></path>
  <path id="025000901" fill="#238a8d" d="M618.8,496.1L620.1,495.1L623.9,492.2L624.1,493.9L622.1,497.2L619,497.6Z"></path>
  <path id="025000902" fill="#20928c" d="M624.1,493.9L625.7,492.1L625.4,496.9L622.1,497.2Z"></path>
  <path id="025001000" fill="#228c8d" d="M614.4,494.8L615.9,493.9L617.7,495.3L620.3,494.1L618.7,493L619.8,492.3L620.1,495.1L618.8,496.1L614.6,498.2Z"></path>
  <path id="025001100" fill="#365c8d" d="M614,492.3L617.8,490.4L621.1,490.9L619.8,492.3L618.7,493L620.3,494.1L617.7,495.3L615.9,493.9L614.4,494.8Z"></path>
  <path id="025001200" fill="#414287" d="M614.6,488.6L617.6,488.3L622.2,486.8L623.7,488.3L623.6,490.2L621.1,490.9L617.8,490.4L614,492.3L613.2,488.9Z"></path>
  <path id="025001401" fill="#46085c" d="M563.7,387.8L585.6,384.7L594.3,383.3L639.7,376.4L640.2,380.1L640.7,380L649.4,438.3L649.1,438.3L655.9,481.5L652.5,484L648.2,484.3L646.9,483.2L642.2,486.1L642,487.7L637.4,484.7L635.5,484.8L632.9,486L630.6,484.6L628.1,486.5L624.2,487.1L623.7,488.3L622.2,486.8L617.6,488.3L615.2,487.2L614,485.2L613,485.5L611.4,483.9L609.5,476.2L608.2,473.1L606.6,472.6L606.6,471.3L603.4,468.9L603.4,467.4L601.6,466.4L600.3,464.4L597.5,463.1L597.5,462.2L594.8,457.7L591.1,454.7L587.9,455.1L587.1,452L586.2,443.9L584,442L582.8,439.5L583.3,435.9L580.5,430.5L578.2,428.4L573.3,424.9L570.9,419.7L569.7,415.6L567,413.7L564.3,410.3L567.2,402.1L565.7,393.7L563.9,391.6Z"></path>
  <path id="025001602" fill="#306a8e" d="M628.1,486.5L630.6,484.6L632.9,486L635.5,484.8L635.8,486.6L635,491.5L631.7,495.3L631.3,493.5L631.8,493L632.3,490.5L631.6,487.8L630.7,487.6L628.2,487.9Z"></path>
  <path id="025001603" fill="#46307e" d="M612.3,499.8L614.6,498.2L618.8,496.1L619,497.6L622.1,497.2L625.4,496.9L629.3,496L631.3,493.5L631.7,495.3L630,498.5L628.7,502.2L626.6,502L625.6,503L622.4,503.1L622.6,506L621.5,509.1L620.5,507.3L620.3,504.3L618.2,503.1L617.7,500.7L616.5,500.7L617,503.5L614.5,502.7L611.3,503.8L610.7,502.9Z"></path>
  <path id="025001700" fill="#3f4788" d="M614.6,488.6L613.2,488.9L614,492.3L614.4,494.8L614.6,498.2L612.3,499.8L610.8,500.8L609.8,499.4L608.2,499.3L609.9,497.8L607.8,485.5L610.6,486.5Z"></path>
  <path id="025001800" fill="#450457" d="M459.8,400.4L497.3,395.4L497.8,395.5L512.2,393.6L512.3,394.9L563.7,387.8L563.9,391.6L565.7,393.7L567.2,402.1L564.3,410.3L567,413.7L569.7,415.6L570.9,419.7L573.3,424.9L578.2,428.4L580.5,430.5L583.3,435.9L582.8,439.5L584,442L586.2,443.9L587.1,452L587.9,455.1L591.1,454.7L594.8,457.7L597.5,462.2L597.5,463.1L600.3,464.4L601.6,466.4L603.4,467.4L603.4,468.9L606.6,471.3L606.6,472.6L608.2,473.1L609.5,476.2L611.4,483.9L613,485.5L614,485.2L615.2,487.2L617.6,488.3L614.6,488.6L610.6,486.5L607.8,485.5L609.9,497.8L608.2,499.3L609.8,499.4L610.8,500.8L612.3,499.8L610.7,502.9L611.3,503.8L614.5,502.7L617,503.5L616.5,500.7L617.7,500.7L618.2,503.1L620.3,504.3L620.5,507.3L621.5,509.1L622.6,506L622.4,503.1L625.6,503L626.6,502L628.7,502.2L630,498.5L631.7,495.3L635,491.5L635.8,486.6L635.5,484.8L637.4,484.7L642,487.7L642.2,486.1L646.9,483.2L648.2,484.3L652.5,484L655.9,481.5L658.2,497L657.6,497.1L659,503.8L659.9,511L665.4,547.9L666.4,555.2L597.7,565.6L561.6,570.2L485.1,580.4L482.7,580.7L474.8,522.1L480,521.4L477.8,505.7L472.1,462.9L470.3,463.1L468.4,448.8L468.6,448.7L462.6,405L460.4,405.3Z"></path>
  <path id="027957200" fill="#440154" d="M784.6,353.2L803.2,349.9L864.4,339.6L888.4,335.4L902.9,419.7L914.1,485L893,488.6L875.8,491.5L864.2,493.8L844.5,497.1L839.1,497.9L812,502.2L809.6,502.8L804.8,473.5L804.1,473.6L803,466.9L801.1,454.2L795.1,417.3L794.9,414.9L791.6,395.1L788.4,375.1Z"></path>
  <path id="029965100" fill="#460a5d" d="M242.2,171L295,164.6L297.7,186.3L301.1,185.9L305.7,223.6L308.2,245L310.6,244.7L311.8,254.7L304.6,256.4L303.6,255.4L298.8,254.3L294.2,254.2L283.5,255L281.3,255.5L267.6,252.6L268.2,250.6L271.1,249.1L271.8,247.6L269.6,243.6L265.7,244.3L263.5,242.8L262.3,239L263.7,238.4L264.2,236L262.6,234.5L263.4,232.7L263.9,226.8L262.1,227.2L257.4,225.8L255.2,226.4L252.8,224.8L250.1,219.6L251.9,217L251.1,214.7L249.8,213.3L252.2,211.2L255.5,210.8L258.5,209.8L258.8,207.3L260.9,207.5L260.9,204.7L258.1,203.6L255.7,199.6L257.4,197.6L256.4,193.3L255.3,192.7L255.1,190.2L253,185.7L249.6,183L248,183.2L246.6,179.6L242.8,176.6L241.9,173.2ZM281,210.9L285.9,210.4L285.4,205.5L280.4,206.1Z"></path>
  <path id="029965200" fill="#2b758e" d="M281,210.9L280.4,206.1L285.4,205.5L285.9,210.4Z"></path>
  <path id="029965300" fill="#450457" d="M242.2,171L241.9,173.2L242.8,176.6L246.6,179.6L248,183.2L249.6,183L253,185.7L255.1,190.2L255.3,192.7L256.4,193.3L257.4,197.6L255.7,199.6L258.1,203.6L260.9,204.7L260.9,207.5L258.8,207.3L258.5,209.8L255.5,210.8L252.2,211.2L249.8,213.3L251.1,214.7L251.9,217L250.1,219.6L252.8,224.8L255.2,226.4L257.4,225.8L262.1,227.2L263.9,226.8L263.4,232.7L262.6,234.5L264.2,236L263.7,238.4L262.3,239L263.5,242.8L265.7,244.3L269.6,243.6L271.8,247.6L271.1,249.1L268.2,250.6L267.6,252.6L281.3,255.5L283.5,255L294.2,254.2L298.8,254.3L303.6,255.4L304.6,256.4L311.8,254.7L313.1,266L317.7,304.1L320.6,303.8L322.4,318.8L292.7,322.3L294.6,337.2L279.3,339.1L281.4,353.6L259.3,356.2L260.9,370.9L256,371.7L238.9,373.6L238.9,374.1L233.9,374.7L232.5,371.3L230.5,370.1L226.7,370.4L224.3,363.9L222,363.9L219.7,359.9L217.1,359.4L215.8,356.7L214.3,357.3L212,356.8L211.3,354L209.9,354.2L208.1,356.1L204.4,354.7L202.9,352.8L200,354.3L198.9,356.8L197.7,357.3L195.9,355.7L194.7,359.5L191.4,360.7L190.1,363.5L190.6,366.9L189.1,368.2L188.6,370.4L189.8,374.1L185.4,375.3L181.9,377.1L179.6,380L178.2,379.6L176.4,381.3L175.6,383.2L171.7,381.1L170.4,379.9L168.8,380.8L166.6,379.5L166.4,377.3L167.3,375.2L169.9,374.6L171.3,373.4L169,371.5L170.6,369.9L166.4,367.3L165.8,363.8L162.9,362.9L162.6,362L164.4,360.2L164,357.7L161.3,359.5L156.4,360.5L152,357.9L148,360.9L146.4,360L146.3,358L144.3,358.2L143.9,356.1L141.7,352.4L139.2,351.7L137,330.7L128.8,331.6L127.4,327.1L128.6,325.4L127.7,324.4L129.3,323.7L128.5,322.7L128.7,320.2L127.1,319.3L128.6,318.5L126.9,317.9L124.7,314.3L125.2,311.8L123.5,310.7L124,309.7L122.1,304.9L119.9,304.5L117.6,302.6L117.2,304.1L114.6,302L115.2,299.6L112.5,298.5L111.2,292.2L109.2,290.1L107.8,289.8L107.4,287.3L104.5,286L101.9,283.3L102.5,279.8L101.9,276.7L102.9,275.1L102.9,268.7L100,266.7L100.9,264.6L98.3,262.7L95.5,263.1L95.4,264.1L92,263.5L88.9,262.1L90,261.2L89.7,258.7L54,262.3L52.6,248.2L42.5,249.1L5.3,252.8L1.9,219L0,196.2L32.8,192.8L42.6,193.7L69,191L79.3,189.7L84,188.1L93.3,187.8L103.9,186.8L114.6,184.4L128.6,183L143,181.5L158.2,180.1L179.6,177.6L203.6,174.6L236.5,170.6L239.1,171.4ZM255.9,255L257,253.8L256.5,251.4L257,248.9L259.1,247.1L258.1,244.4L255.6,245.7L250.7,249.4L248.4,250.4L246.2,253.5L247.7,259.1L249.5,258.6L248.9,253.7L251,253.2Z"></path>
  <path id="029965400" fill="#34608d" d="M250.7,249.4L255.6,245.7L258.1,244.4L259.1,247.1L257,248.9L256.5,251.4L257,253.8L255.9,255L255.6,252.8L252.3,252.7Z"></path>
  <path id="029965500" fill="#365c8d" d="M250.7,249.4L252.3,252.7L255.6,252.8L255.9,255L251,253.2L248.9,253.7L249.5,258.6L247.7,259.1L246.2,253.5L248.4,250.4Z"></path>
  <path id="031959100" fill="#450559" d="M809.6,502.8L812,502.2L839.1,497.9L845.6,537.4L849.3,559.2L850.8,568.6L848.2,567.8L847.2,569.2L847.5,572.1L845.9,572.6L844.3,575.4L840.8,576.9L842,577.5L839.5,579.2L837.7,578.5L836.9,579.7L835.2,579.7L836.6,581.9L834,582.1L834.1,583.2L830.7,585L828.2,583.2L826.7,584.1L820.9,583.5L818.6,584.1L817.3,585.7L813.5,576.9L811.6,574.7L811.1,572L809.5,569.1L809.6,567.4L806.9,567.8L802.5,564.7L800.2,563.9L775.3,568.1L773.7,570.5L774.3,575.6L771.3,575.7L767.6,552.3L765.5,540.4L765.7,540.4L760.6,511.1L781.5,507.4Z"></path>
  <path id="031959400" fill="#46085c" d="M771.3,575.7L774.3,575.6L773.7,570.5L775.3,568.1L800.2,563.9L802.5,564.7L806.9,567.8L809.6,567.4L809.5,569.1L811.1,572L811.6,574.7L813.5,576.9L817.3,585.7L818.6,584.1L820.9,583.5L826.7,584.1L828.2,583.2L830.7,585L834.1,583.2L834,582.1L836.6,581.9L835.2,579.7L836.9,579.7L837.7,578.5L839.5,579.2L842,577.5L840.8,576.9L844.3,575.4L845.9,572.6L847.5,572.1L847.2,569.2L848.2,567.8L850.8,568.6L855.7,597.6L856.1,600.4L865.7,658.9L841.7,662.7L807.4,667.6L786.6,670.9L784.3,656.5L785.2,656.3L778.8,615.2L778,611.7L775.8,597.9L774.9,598.1Z"></path>
  <path id="033000100" fill="#33638d" d="M502.1,172.7L503.3,172.1L504.2,178.3L507,182.4L505.2,180.9L503.3,180.8L503.4,182.8L501.6,182.7L500.4,176.2L499.8,175L502.2,174.2Z"></path>
  <path id="033000200" fill="#21908d" d="M498.4,173.7L499.2,172.9L502.1,172.7L502.2,174.2L499.8,175L500.4,176.2L499.3,176.4Z"></path>
  <path id="033000300" fill="#23898e" d="M497.2,171.6L503.2,171.1L503.3,172.1L502.1,172.7L499.2,172.9L498.4,173.7Z"></path>
  <path id="033000400" fill="#218f8d" d="M502.2,168.4L503.2,171.1L497.2,171.6L496.8,169.2Z"></path>
  <path id="033000500" fill="#46085c" d="M501.6,182.7L503.4,182.8L503.3,180.8L505.2,180.9L507,182.4L504.2,178.3L503.3,172.1L503.2,171.1L502.2,168.4L497,165.5L495.8,164.1L494.7,160.9L493,158.8L495.3,158.9L495.4,156.4L499.7,153.8L499.6,151.4L500.3,149.1L499.1,147.5L500.2,143.5L502.5,140.1L503,138.4L542.9,133L580,127.8L608.8,123.6L612.2,144.5L613.5,146.2L617.2,171.5L618,173.7L621.4,195.4L615.4,196.4L600.8,198.5L600.9,198.8L570.5,203.2L570.7,204.1L542.1,208.1L517.9,211.4L497.2,214L486,215.7L465.2,218.4L464.3,216.8L464.7,214.3L466.1,212.5L465.6,210L463.8,209.4L464.9,206.4L467.2,205.4L466.9,202.9L468.1,200.8L471,198.7L472.5,196.2L473.8,195.5L475.9,192.4L478.1,191L479.8,187.4L479.6,186L481.1,183.7L485.6,181.9L490.4,178.7L490.5,180.9L492.1,182.3L491.1,184L493.7,182.8L497.6,182.4Z"></path>
  <path id="033000600" fill="#46085c" d="M380.8,153.8L400.3,151.4L417.4,149.1L448.5,144.9L474.8,141.6L480.8,141.4L503,138.4L502.5,140.1L500.2,143.5L499.1,147.5L500.3,149.1L499.6,151.4L499.7,153.8L495.4,156.4L495.3,158.9L493,158.8L494.7,160.9L495.8,164.1L497,165.5L502.2,168.4L496.8,169.2L497.2,171.6L498.4,173.7L499.3,176.4L500.4,176.2L501.6,182.7L497.6,182.4L493.7,182.8L491.1,184L492.1,182.3L490.5,180.9L490.4,178.7L485.6,181.9L481.1,183.7L479.6,186L479.8,187.4L478.1,191L475.9,192.4L473.8,195.5L472.5,196.2L471,198.7L468.1,200.8L466.9,202.9L467.2,205.4L464.9,206.4L463.8,209.4L465.6,210L466.1,212.5L464.7,214.3L464.3,216.8L465.2,218.4L456.3,219.4L455.1,215.8L453.8,213.7L448.8,213L448.4,211.7L446.4,212.9L444.5,212.8L441.7,211.4L439.2,207.7L438.2,208.1L437.4,209.3L435.3,209.4L434.3,206.7L435.8,204.9L432.1,204.3L431.8,202.3L428.7,202L427.7,201L423.2,199.6L422.6,201.1L420,201.4L417.3,204.1L415.1,202.1L415.2,200.4L413.2,200.3L409.3,198.9L407.7,199.4L406.3,198L407,197L406.3,192.8L404.9,190.2L401.8,190.3L397.4,187.9L395,188L395.2,185.9L396.3,183.2L394.2,182.2L393.9,178.9L392,176.4L389.2,174.6L389.3,171L390.7,170.1L389.3,167.2L385.9,164.8L385.8,159.5L384.8,156Z"></path>
  <path id="035000101" fill="#450457" d="M87.6,489.2L86.7,479.6L93.3,478.9L92.5,480.5L94.8,482.5L96.4,485.1L99.6,486.5L100.7,485.7L103,486.2L106.7,489.1L108.2,491.3L114.8,499L118.8,500L123.5,499.1L127.9,499.9L131,499.6L132.5,501.6L134.1,500.9L137,501.7L140,504.7L141.9,509.1L142.2,512.8L144.4,515.5L146.8,517.5L148.1,519.5L152.3,524.2L154.7,533.2L156,540.4L156.8,541.1L164.3,540.9L174.1,542L176.1,543.1L179.5,542.8L181.6,545.5L185.5,548.4L185.7,550.4L187.6,550.6L190.5,552.5L196.4,555L201,558.3L203.7,561.2L204.2,562.5L205,569.2L209.7,576.1L214.9,581.7L219.4,588.1L221.8,596.6L224,600.2L229.6,610.6L230.5,615L235.1,622.9L236.2,627.6L239.3,632.2L243.3,639.2L208.4,642.7L170.1,645.9L150.8,647.9L150.7,646.9L140,648.2L123.2,649.8L123.1,649.2L108.4,651.1L108.3,649.5L105.3,622.1L99.4,622.7L98.7,613.9L95,578.3L90.8,578.7L89.7,567L94.2,566.6L89.6,522.3L88.3,507.8L89.4,507.6Z"></path>
  <path id="035000102" fill="#450559" d="M93.3,478.9L115.8,476.7L114.3,462.1L149.9,458.4L148.3,443.7L149.1,443.6L185.9,439.9L187.7,456.4L190.4,456.1L193.3,454.3L195.1,455.5L195.3,461.6L198.9,464.7L199,467L197.8,469.7L198.8,470.8L197.2,472.6L199.5,475.2L199.6,477.3L200.7,478.5L200.2,480.8L202.4,482.7L203.5,487.2L205.2,489.4L206.9,489L207.1,491.4L208.8,495.2L212.6,496.6L217.1,501.5L218.5,505.4L217.1,507.2L218.8,510.2L219.4,513.4L222.3,512.9L224.1,513.8L225.7,513.1L227.2,515.5L231.4,516.3L231.8,518.2L232.5,519.2L235.2,519.3L235.8,520.5L238.1,521.1L240.1,523.7L243.3,522.2L245.5,525.6L246.8,526.2L248.3,529.9L249.1,530.2L250.4,534.6L251.9,536.6L255.1,538L256.2,537.6L258.4,541.3L261.3,544.1L265.7,544.7L266.3,545.8L264.3,546.9L263.2,548.9L263.5,550.3L266,551.5L266.8,549.6L268.6,549.7L271,552.4L275.8,553.6L277.2,554.7L275.4,556L278.2,558.9L277.1,559.6L277.7,561.4L285.4,560.6L291,604.6L294.2,604.2L297.5,633L243.3,639.2L239.3,632.2L236.2,627.6L235.1,622.9L230.5,615L229.6,610.6L224,600.2L221.8,596.6L219.4,588.1L214.9,581.7L209.7,576.1L205,569.2L204.2,562.5L203.7,561.2L201,558.3L196.4,555L190.5,552.5L187.6,550.6L185.7,550.4L185.5,548.4L181.6,545.5L179.5,542.8L176.1,543.1L174.1,542L164.3,540.9L156.8,541.1L156,540.4L154.7,533.2L152.3,524.2L148.1,519.5L146.8,517.5L144.4,515.5L142.2,512.8L141.9,509.1L140,504.7L137,501.7L134.1,500.9L132.5,501.6L131,499.6L127.9,499.9L123.5,499.1L118.8,500L114.8,499L108.2,491.3L106.7,489.1L103,486.2L100.7,485.7L99.6,486.5L96.4,485.1L94.8,482.5L92.5,480.5Z"></path>
  <path id="037970500" fill="#450559" d="M183.2,763.4L178.8,719.7L176.2,695L180.3,693.3L187.5,696.3L193.8,697.6L201.7,699.9L205.6,703.3L207,703.7L212.4,700.7L213.2,698.8L216.3,695.6L218.9,694.7L222.3,695.6L221.8,696.7L229,699.8L247.4,697.8L262.3,695.8L265.4,700.1L267.6,706.2L270,717.1L269.5,719.7L268.1,720.8L270.7,725.5L267.2,724.8L267.1,727.2L273.6,729.1L277.5,738.3L277.6,741.3L276.3,743L277.3,746.5L276.2,750.7L279.3,752.5L281.7,752.4L282.1,753.3L277.5,756.6L270,761.6L266.7,762.9L263.4,763.2L258.4,765.3L257.1,764.3L254.5,760.3L251.9,760.9L249.6,759.3L246.5,758.8L241.5,761.1L239.3,762.8L231.4,764.3L210.9,766.4L200.1,767.7L189.9,776.2L185.1,782.6Z"></path>
  <path id="037970601" fill="#482979" d="M258.4,765.3L263.4,763.2L266.7,762.9L270,761.6L277.5,756.6L278.5,758.2L280,761.1L279.1,765.6L278.9,767.7L275.5,769.7L275.8,771.1L271.3,771.1L269.3,772.2L269.1,773.6L266.6,774.5L263.4,774.4L260.8,772L260,770L261.2,769.2L259,768L257.5,767Z"></path>
  <path id="037970602" fill="#75d054" d="M259,768L261.2,769.2L260,770Z"></path>
  <path id="037970700" fill="#46075a" d="M185.1,782.6L189.9,776.2L200.1,767.7L210.9,766.4L231.4,764.3L239.3,762.8L241.5,761.1L246.5,758.8L249.6,759.3L251.9,760.9L254.5,760.3L257.1,764.3L258.4,765.3L257.5,767L259,768L260,770L260.8,772L263.4,774.4L266.6,774.5L269.1,773.6L269.3,772.2L269.3,776.5L266.1,778L265.5,779.3L267.5,781L266.9,783.8L264.1,783.3L262.7,783.8L263,788.1L265.8,789.4L264.9,792.8L263.1,793.2L262.9,796.4L261.2,798.6L258.6,799.4L256.5,798.7L253.7,799.7L253.5,802L254.6,806.2L251.5,809.8L249.8,812.5L248.1,817.1L252.9,818.5L254.6,819.8L256.2,825.1L254.4,826.9L254.4,831.7L256.2,833.2L257.6,836L256.5,842.8L254.6,845.3L256.3,847.7L256.2,849.2L254.5,851.1L256,852.7L255.6,855.2L241.3,856.7L218.3,859.3L193.5,862L189.3,822.6Z"></path>
  <path id="037970800" fill="#482576" d="M288.1,726L291.4,724.8L294.3,725.1L298.9,724.2L299.8,724.5L299.8,728.2L301,730.6L300.6,743.6L298.9,745.4L299.7,746.2L298.1,746.5L296,748.6L294,748.3L291.5,749.5L290,748.7L289,749.8L288.1,750.5L287.7,749.4L286.8,746.9L286.1,744.7L286.4,733.4L286.9,728.1Z"></path>
  <path id="037970901" fill="#472d7b" d="M270.7,725.5L274.1,725L276.9,725.8L278.8,727.3L288.1,726L286.9,728.1L286.4,733.4L286.1,744.7L284.5,743.8L283.2,749.7L282.3,751.2L284,752.1L282.1,753.3L281.7,752.4L279.3,752.5L276.2,750.7L277.3,746.5L276.3,743L277.6,741.3L277.5,738.3L273.6,729.1L267.1,727.2L267.2,724.8Z"></path>
  <path id="037970902" fill="#2a788e" d="M286.1,744.7L286.8,746.9L285.8,747.7L284,752.1L282.3,751.2L283.2,749.7L284.5,743.8Z"></path>
  <path id="037970903" fill="#3b528b" d="M277.5,756.6L282.1,753.3L284,752.1L285.8,747.7L286.8,746.9L287.7,749.4L286.5,753.4L283,754.8L278.5,758.2Z"></path>
  <path id="037971000" fill="#48186a" d="M278.5,758.2L283,754.8L286.5,753.4L287.7,749.4L288.1,750.5L289.2,754.3L291.6,756.6L296.3,755.8L297.3,755L298.4,758.6L297.5,759.5L297.8,762.5L295.6,772L286.8,776.4L285.1,773.2L283.8,767.8L282.6,766.7L279.1,765.6L280,761.1Z"></path>
  <path id="037971100" fill="#3a538b" d="M288.1,750.5L289,749.8L289.7,751.4L297.3,754.4L297.3,755L296.3,755.8L291.6,756.6L289.2,754.3Z"></path>
  <path id="037971200" fill="#472f7d" d="M289,749.8L290,748.7L291.5,749.5L294,748.3L296,748.6L298.1,746.5L299.7,746.2L301.5,748.1L301.6,749.9L303.5,755.8L303.7,757.5L301.3,757.9L297.3,754.4L289.7,751.4Z"></path>
  <path id="037971600" fill="#440154" d="M170.1,645.9L208.4,642.7L243.3,639.2L297.5,633L341,628L361.7,625.5L386.4,622.4L413.2,619.2L474.8,611.5L489,609.6L492.9,638.9L495.2,638.6L502.8,697.4L502.2,697.5L504.1,711.6L462.3,716.8L450.8,718.1L456.5,762.3L458.1,762.1L466.5,829.3L450.1,831.4L424,835L392,839L342.9,844.9L295.8,850.2L263.8,854.1L255.6,855.2L256,852.7L254.5,851.1L256.2,849.2L256.3,847.7L254.6,845.3L256.5,842.8L257.6,836L256.2,833.2L254.4,831.7L254.4,826.9L256.2,825.1L254.6,819.8L252.9,818.5L248.1,817.1L249.8,812.5L251.5,809.8L254.6,806.2L253.5,802L253.7,799.7L256.5,798.7L258.6,799.4L261.2,798.6L262.9,796.4L263.1,793.2L264.9,792.8L265.8,789.4L263,788.1L262.7,783.8L264.1,783.3L266.9,783.8L267.5,781L265.5,779.3L266.1,778L269.3,776.5L269.3,772.2L271.3,771.1L275.8,771.1L275.5,769.7L278.9,767.7L279.1,765.6L282.6,766.7L283.8,767.8L285.1,773.2L286.8,776.4L295.6,772L297.8,762.5L297.5,759.5L298.4,758.6L297.3,755L297.3,754.4L301.3,757.9L303.7,757.5L303.5,755.8L301.6,749.9L301.5,748.1L299.7,746.2L298.9,745.4L300.6,743.6L301,730.6L299.8,728.2L299.8,724.5L298.9,724.2L294.3,725.1L291.4,724.8L288.1,726L278.8,727.3L276.9,725.8L274.1,725L270.7,725.5L268.1,720.8L269.5,719.7L270,717.1L267.6,706.2L265.4,700.1L262.3,695.8L247.4,697.8L229,699.8L221.8,696.7L222.3,695.6L218.9,694.7L216.3,695.6L213.2,698.8L212.4,700.7L207,703.7L205.6,703.3L201.7,699.9L193.8,697.6L187.5,696.3L180.3,693.3L176.2,695L175.7,690.6L174.7,690.6Z"></path>
  <path id="039967600" fill="#450457" d="M5.3,252.8L42.5,249.1L52.6,248.2L54,262.3L89.7,258.7L90,261.2L88.9,262.1L92,263.5L95.4,264.1L95.5,263.1L98.3,262.7L100.9,264.6L100,266.7L102.9,268.7L102.9,275.1L101.9,276.7L102.5,279.8L101.9,283.3L104.5,286L107.4,287.3L107.8,289.8L109.2,290.1L111.2,292.2L112.5,298.5L115.2,299.6L114.6,302L117.2,304.1L117.6,302.6L119.9,304.5L122.1,304.9L124,309.7L123.5,310.7L125.2,311.8L124.7,314.3L126.9,317.9L128.6,318.5L127.1,319.3L128.7,320.2L128.5,322.7L129.3,323.7L127.7,324.4L128.6,325.4L127.4,327.1L128.8,331.6L137,330.7L139.2,351.7L142.6,384.5L142.8,384.4L149.1,443.6L148.3,443.7L149.9,458.4L114.3,462.1L115.8,476.7L93.3,478.9L86.7,479.6L87.6,489.2L58.3,492.1L57,478.4L28.3,481.2L22.6,423L20,396.5L18.5,380.8L17,365.4L16.4,362L11,305.6L9.2,285.2L6,259.8ZM54.5,463.1L56.7,465.2L59.5,464.6L64.4,465.9L63.9,464.4L67.6,464L69,458.7L70.3,457.9L72.5,459.2L76.5,459.2L76.7,457.7L74.7,456L77.7,454.3L76.1,451L73.9,449.6L72.3,446.7L69.3,444.3L66.5,444.5L64,447L61.4,447.1L60.5,448.4L60.9,445.6L62.7,441.5L63.3,438.2L62.9,435L61.8,435.3L55.9,439.2L55,439.3L54.4,436L52,437.1L52.2,439.4L48.1,440.1L44.7,442.1L42.3,445.3L37.8,449.3L36.5,449.3L36.4,451.5L37.4,452.7L34.9,451.8L32.5,451.9L32,453L29.5,452L27.8,452.3L26.4,454.6L27.6,455.6L27.6,458.1L29.6,460.4L31.8,460.7L33,462.2L35.4,462.1L36.7,463.1L40.5,463.3L44.4,464.3L47.4,462.3L48.9,460.4L52.6,460.4Z"></path>
  <path id="039967701" fill="#482576" d="M59.6,450.5L60.5,448.4L61.4,447.1L64,447L66.5,444.5L69.3,444.3L72.3,446.7L73.9,449.6L76.1,451L77.7,454.3L74.7,456L76.7,457.7L76.5,459.2L72.5,459.2L70.3,457.9L69,458.7L71.8,456.5L67.9,455.5L66.3,454.4L61.7,452.9L62.6,451.6L62.2,449.9Z"></path>
  <path id="039967702" fill="#482173" d="M60.5,448.4L59.6,450.5L57.2,453.1L51.5,453.3L52.3,457.8L54,459.9L54.5,463.1L52.6,460.4L48.9,460.4L47.4,462.3L44.4,464.3L40.5,463.3L36.7,463.1L35.4,462.1L33,462.2L31.8,460.7L29.6,460.4L27.6,458.1L27.6,455.6L26.4,454.6L27.8,452.3L29.5,452L32,453L32.5,451.9L34.9,451.8L37.4,452.7L36.4,451.5L36.5,449.3L37.8,449.3L42.3,445.3L44.7,442.1L48.1,440.1L52.2,439.4L52,437.1L54.4,436L55,439.3L55.9,439.2L61.8,435.3L62.9,435L63.3,438.2L62.7,441.5L60.9,445.6Z"></path>
  <path id="039967800" fill="#453781" d="M59.6,450.5L62.2,449.9L62.6,451.6L61.7,452.9L66.3,454.4L67.9,455.5L71.8,456.5L69,458.7L67.6,464L63.9,464.4L64.4,465.9L59.5,464.6L56.7,465.2L54.5,463.1L54,459.9L52.3,457.8L51.5,453.3L57.2,453.1Z"></path>
  <path id="041975200" fill="#46085c" d="M114.8,770.2L145.7,767.1L181.3,763.7L183.2,763.4L185.1,782.6L189.3,822.6L193.5,862L169.2,864.9L167.6,864.9L151.6,866.8L135.5,868.4L130.5,868.7L121.8,869.5L123.9,867.4L123.7,864.6L124.7,864.1L124.2,860.2L125.3,858.3L126.8,853.3L127.7,851.5L128.6,847.5L130.3,845.6L132.5,839.9L135.2,835.8L134.2,835.9L126.9,833.3L128.3,828.7L127.3,817.9L122.6,817.9L120.9,819L119,818.8L117.6,820.1L113.7,821.9L109.9,824.4L105.8,823.7L102,825.3L101.2,823.2L99.5,821.5L100.2,818.5L101.6,817.3L106.3,808.5L107.2,807.3L111.4,799.5L112.4,795.2L112.3,790.6L112.7,785.1L114.5,777.5L114.2,773Z"></path>
  <path id="041975300" fill="#460b5e" d="M61.3,832.2L65.5,831.7L69.2,829L72.3,829.2L73.6,827.7L75.2,827.4L79.9,827.9L79.8,824.5L76.1,822.6L76.7,821.7L74.2,821.8L68.6,822.9L66.5,819.2L65.2,813.9L64.1,811.9L63.5,807.2L64.2,802L63.5,799.4L63.7,797.3L62.9,793.1L60.9,788.3L63,786.4L62.7,784.8L60.2,785.7L57,785.7L56,775.8L114.8,770.2L114.2,773L114.5,777.5L112.7,785.1L112.3,790.6L112.4,795.2L111.4,799.5L107.2,807.3L106.3,808.5L101.6,817.3L100.2,818.5L99.5,821.5L101.2,823.2L102,825.3L105.8,823.7L109.9,824.4L113.7,821.9L117.6,820.1L119,818.8L120.9,819L122.6,817.9L127.3,817.9L128.3,828.7L126.9,833.3L134.2,835.9L135.2,835.8L132.5,839.9L130.3,845.6L128.6,847.5L127.7,851.5L126.8,853.3L125.3,858.3L124.2,860.2L124.7,864.1L123.7,864.6L123.9,867.4L121.8,869.5L65.3,874.7Z"></path>
  <path id="041975400" fill="#482979" d="M57,785.7L60.2,785.7L62.7,784.8L63,786.4L60.9,788.3L62.9,793.1L63.7,797.3L63.5,799.4L64.2,802L63.5,807.2L64.1,811.9L65.2,813.9L66.5,819.2L68.6,822.9L74.2,821.8L76.7,821.7L76.1,822.6L79.8,824.5L79.9,827.9L75.2,827.4L73.6,827.7L72.3,829.2L69.2,829L65.5,831.7L61.3,832.2Z"></path>
  <path id="043000200" fill="#450457" d="M320.6,303.8L372.8,297.4L398,294.2L422,291.1L426.7,290.7L464.4,285.5L492.4,282.1L494.6,281.8L500.7,326.1L502.8,340.7L504.5,340.4L510.5,384.3L510.9,384.2L512.2,393.6L497.8,395.5L497.3,395.4L459.8,400.4L452.3,401.4L449.1,376.9L434.2,379L432.3,364.2L402.7,368L400.8,353.7L374,357L371.1,355.8L372.1,352.2L356.8,354.4L355.6,344.9L340.9,346.7L339.3,331.7L331.7,332.6L329.8,317.8L322.4,318.8ZM395.3,321.9L397.8,321.6L400.3,321.2L399.6,316.4L400.1,315.1L398,312.4L395.6,314.7L396.3,315.8L394.5,319.4L395,320.9L393.3,323.1L394.2,323.7L392.6,325.9L393.9,325.8Z"></path>
  <path id="043000301" fill="#21a685" d="M397.8,321.6L395.3,321.9L396.2,319.3L397.4,319.2Z"></path>
  <path id="043000302" fill="#404588" d="M397.8,321.6L397.4,319.2L396.2,319.3L395.3,321.9L393.9,325.8L392.6,325.9L394.2,323.7L393.3,323.1L395,320.9L394.5,319.4L396.3,315.8L395.6,314.7L398,312.4L400.1,315.1L399.6,316.4L400.3,321.2Z"></path>
  <path id="045951100" fill="#450457" d="M744.5,243.1L819.7,230.1L869.2,221.9L878.3,276.7L888.4,335.4L864.4,339.6L803.2,349.9L784.6,353.2L762.5,356.9L762.3,356.2L756,316.3L753.9,301.7L753.6,301.8ZM842.3,279.3L843.5,281L844.9,284.7L846.4,286.8L849,286.7L849.8,288.1L852.3,287.6L854.9,282.9L857.5,284.6L857.3,283.3L859,282.8L860.1,287.1L862.8,287L865.8,286.1L865.4,282.5L866.8,282.3L867,279.8L862.8,276.9L853.6,272.9L846.8,270.2L845.8,271.8L846.1,276.4L842.2,277Z"></path>
  <path id="045951300" fill="#482173" d="M842.3,279.3L842.2,277L846.1,276.4L845.8,271.8L846.8,270.2L853.6,272.9L862.8,276.9L867,279.8L866.8,282.3L865.4,282.5L865.8,286.1L862.8,287L860.1,287.1L859,282.8L857.3,283.3L857.5,284.6L854.9,282.9L852.3,287.6L849.8,288.1L849,286.7L846.4,286.8L844.9,284.7L843.5,281Z"></path>
</svg>
